<?xml version="1.0" encoding="UTF-8"?>
<svg xmlns="http://www.w3.org/2000/svg" xmlns:xlink="http://www.w3.org/1999/xlink" width="64px" height="px" viewBox="0 0 64 64" version="1.1">
<g id="surface1">
<path style=" stroke:none;fill-rule:evenodd;fill:rgb(15.686275%,57.254905%,27.058825%);fill-opacity:1;" d="M 63.953125 47.738281 C 63.953125 48.101562 63.941406 48.84375 63.925781 49.433594 C 63.878906 50.855469 63.757812 52.714844 63.589844 53.5625 C 63.320312 54.832031 62.941406 56.027344 62.441406 57.027344 C 61.820312 58.207031 61.066406 59.265625 60.15625 60.171875 C 59.234375 61.082031 58.175781 61.851562 57.011719 62.457031 C 56.011719 62.957031 54.789062 63.363281 53.515625 63.621094 C 52.683594 63.804688 50.839844 63.894531 49.417969 63.953125 C 48.84375 63.984375 48.070312 63.984375 47.722656 63.984375 L 16.199219 63.984375 C 15.851562 63.984375 15.097656 63.96875 14.507812 63.941406 C 13.085938 63.894531 11.222656 63.773438 10.375 63.589844 C 9.105469 63.335938 7.925781 62.941406 6.929688 62.441406 C 5.75 61.835938 4.703125 61.066406 3.78125 60.15625 C 2.859375 59.25 2.117188 58.207031 1.511719 57.027344 C 1 56.027344 0.605469 54.804688 0.347656 53.546875 C 0.195312 52.714844 0.0585938 50.871094 0.03125 49.433594 C 0.015625 48.84375 0 48.085938 0 47.738281 L 0.015625 16.230469 C 0.015625 15.882812 0.015625 15.125 0.03125 14.535156 C 0.0742188 13.097656 0.195312 11.238281 0.363281 10.40625 C 0.621094 9.121094 1.011719 7.941406 1.511719 6.941406 C 2.117188 5.777344 2.902344 4.703125 3.8125 3.796875 C 4.71875 2.890625 5.777344 2.117188 6.941406 1.527344 C 7.941406 1.011719 9.152344 0.636719 10.453125 0.378906 C 11.269531 0.210938 13.113281 0.105469 14.550781 0.046875 C 15.097656 0.015625 15.867188 0.015625 16.214844 0.015625 L 47.722656 0.015625 C 48.085938 0.015625 48.84375 0.03125 49.417969 0.046875 C 50.871094 0.0898438 52.714844 0.210938 53.5625 0.394531 C 54.816406 0.636719 56.027344 1.027344 57.011719 1.542969 C 58.207031 2.148438 59.265625 2.917969 60.171875 3.828125 C 61.082031 4.75 61.835938 5.808594 62.457031 6.988281 C 62.972656 7.988281 63.363281 9.183594 63.621094 10.453125 C 63.789062 11.300781 63.910156 13.128906 63.953125 14.550781 C 63.984375 15.15625 64 15.898438 64 16.246094 Z M 63.953125 47.738281 "/>
<path style=" stroke:none;fill-rule:nonzero;fill:rgb(100%,100%,100%);fill-opacity:1;" d="M 47.089844 27.257812 L 47.089844 20.933594 L 48.390625 20.933594 L 48.390625 26.367188 C 48.042969 26.546875 47.558594 26.878906 47.089844 27.257812 M 44.835938 29.164062 C 45.242188 28.679688 45.667969 28.195312 46.136719 27.800781 L 46.136719 20.933594 L 44.835938 20.933594 Z M 29.828125 34.171875 C 29.828125 35.878906 30.511719 37.46875 31.71875 38.695312 C 32.945312 39.902344 34.535156 40.585938 36.226562 40.585938 C 36.953125 40.585938 37.695312 40.417969 38.195312 40.175781 L 38.195312 38.890625 C 37.574219 39.148438 36.847656 39.285156 36.226562 39.285156 C 33.445312 39.285156 31.113281 36.953125 31.113281 34.1875 L 31.113281 33.019531 C 31.113281 30.253906 33.445312 27.921875 36.226562 27.921875 C 37.589844 27.921875 38.90625 28.453125 39.84375 29.40625 C 40.8125 30.359375 41.324219 31.644531 41.324219 33.019531 L 41.324219 40.585938 L 42.640625 40.585938 L 42.640625 32.777344 C 42.550781 31.128906 41.839844 29.570312 40.644531 28.421875 C 39.417969 27.257812 37.875 26.636719 36.226562 26.636719 C 34.535156 26.636719 32.929688 27.304688 31.71875 28.511719 C 30.511719 29.738281 29.828125 31.328125 29.828125 33.019531 Z M 49.238281 31.070312 C 49.8125 30.480469 50.582031 30.148438 51.324219 30.148438 C 52.941406 30.148438 54.167969 31.386719 54.167969 32.992188 L 54.167969 34.15625 C 54.167969 35.757812 52.925781 37 51.324219 37 C 50.550781 37 49.796875 36.574219 49.222656 35.804688 C 48.707031 35.125 48.359375 34.199219 48.3125 33.382812 L 47.269531 34.667969 C 47.464844 35.636719 47.980469 36.5625 48.707031 37.242188 C 49.464844 37.921875 50.386719 38.300781 51.324219 38.300781 C 53.609375 38.300781 55.484375 36.441406 55.484375 34.140625 L 55.484375 32.976562 C 55.484375 31.886719 55.046875 30.859375 54.242188 30.054688 C 53.457031 29.269531 52.414062 28.832031 51.324219 28.832031 C 50.644531 28.832031 49.554688 29.074219 48.253906 30.238281 L 48.238281 30.253906 C 47.90625 30.601562 47.089844 31.402344 46.574219 31.976562 C 45.742188 32.886719 44.53125 34.277344 43.503906 35.652344 L 43.503906 37.664062 C 44.652344 36.183594 45.320312 35.378906 46.394531 34.140625 C 47.359375 33.035156 48.554688 31.660156 49.238281 31.070312 M 18.605469 28.632812 L 18.605469 27.089844 C 17.441406 26.457031 16.15625 26.183594 14.460938 26.183594 C 12.738281 26.183594 11.085938 26.804688 9.832031 27.96875 C 8.59375 29.117188 7.894531 30.644531 7.894531 32.25 L 7.894531 32.65625 C 7.894531 36.015625 10.574219 38.722656 13.871094 38.722656 C 16.5625 38.722656 17.667969 37.847656 17.941406 37.574219 L 17.941406 33.671875 L 13.554688 33.671875 L 13.554688 34.972656 L 16.730469 34.972656 L 16.730469 36.921875 L 16.714844 36.921875 C 16.292969 37.089844 15.445312 37.421875 13.855469 37.421875 C 12.601562 37.421875 11.421875 36.921875 10.542969 36.046875 C 9.652344 35.152344 9.152344 33.945312 9.152344 32.65625 L 9.152344 32.25 C 9.152344 29.648438 11.570312 27.46875 14.429688 27.46875 C 16.425781 27.484375 17.605469 27.816406 18.605469 28.632812 M 28.058594 30.164062 C 28.542969 30.164062 28.96875 30.238281 29.300781 30.390625 C 29.464844 29.996094 29.617188 29.664062 29.859375 29.253906 C 29.511719 28.996094 28.679688 28.847656 28.042969 28.847656 C 25.683594 28.847656 23.882812 30.632812 23.882812 33.007812 L 23.882812 40.570312 L 25.183594 40.570312 L 25.183594 33.007812 C 25.199219 31.328125 26.367188 30.164062 28.058594 30.164062 M 5.628906 32.265625 L 5.628906 32.671875 C 5.628906 34.925781 6.488281 37 8.03125 38.574219 C 9.558594 40.128906 11.632812 40.976562 13.855469 40.976562 C 15.640625 40.976562 17.214844 40.585938 18.53125 39.765625 C 19.632812 39.132812 20.132812 38.464844 20.164062 38.40625 L 20.164062 31.433594 L 13.554688 31.433594 L 13.554688 32.734375 L 18.894531 32.734375 L 18.894531 38.011719 C 18.257812 38.632812 16.789062 39.691406 13.871094 39.691406 C 11.980469 39.691406 10.210938 38.980469 8.941406 37.664062 C 7.640625 36.347656 6.929688 34.578125 6.929688 32.6875 L 6.929688 32.28125 C 6.929688 30.464844 7.746094 28.679688 9.152344 27.347656 C 10.589844 25.988281 12.480469 25.246094 14.460938 25.246094 C 16.304688 25.246094 17.59375 25.535156 18.605469 26.152344 L 18.605469 24.6875 C 17.53125 24.234375 16.246094 24.019531 14.460938 24.019531 C 9.679688 24.019531 5.628906 27.800781 5.628906 32.265625 M 40.371094 40.570312 L 40.371094 33.007812 C 40.371094 30.675781 38.558594 28.847656 36.226562 28.847656 C 35.152344 28.847656 34.109375 29.285156 33.308594 30.070312 C 32.523438 30.875 32.082031 31.902344 32.082031 32.992188 L 32.082031 34.15625 C 32.082031 36.410156 33.988281 38.316406 36.226562 38.316406 C 36.847656 38.316406 37.695312 38.148438 38.195312 37.726562 L 38.195312 36.363281 C 37.679688 36.773438 36.953125 37 36.226562 37 C 34.640625 37 33.367188 35.757812 33.367188 34.15625 L 33.367188 32.992188 C 33.367188 31.371094 34.625 30.148438 36.226562 30.148438 C 37.832031 30.148438 39.085938 31.386719 39.085938 32.992188 L 39.085938 40.554688 L 40.371094 40.554688 Z M 28.058594 27.910156 C 28.9375 27.910156 29.691406 28.089844 30.390625 28.484375 C 30.707031 28.074219 31.054688 27.757812 31.296875 27.5 C 30.570312 26.941406 29.332031 26.621094 28.074219 26.621094 C 26.273438 26.621094 24.625 27.257812 23.476562 28.4375 C 22.3125 29.617188 21.660156 31.222656 21.660156 33.019531 L 21.660156 40.585938 L 22.976562 40.585938 L 22.976562 33.019531 C 22.960938 29.996094 25.050781 27.910156 28.058594 27.910156 M 55.832031 28.5 C 54.621094 27.273438 53.003906 26.621094 51.324219 26.621094 C 50.082031 26.621094 48.859375 27.0625 48.179688 27.515625 C 46.769531 28.453125 45.589844 29.480469 43.519531 32.175781 L 43.519531 34.109375 C 45.304688 31.796875 46.96875 29.996094 48.253906 28.980469 C 49.085938 28.316406 50.265625 27.894531 51.339844 27.894531 C 54.105469 27.894531 56.4375 30.222656 56.4375 32.992188 L 56.4375 34.15625 C 56.4375 35.53125 55.90625 36.800781 54.925781 37.753906 C 53.957031 38.738281 52.683594 39.253906 51.324219 39.253906 C 49.054688 39.253906 47.042969 37.695312 46.515625 35.5625 L 45.589844 36.652344 C 46.257812 38.90625 48.660156 40.554688 51.324219 40.554688 C 53.019531 40.554688 54.621094 39.886719 55.832031 38.664062 C 57.058594 37.453125 57.722656 35.851562 57.722656 34.140625 L 57.722656 32.976562 C 57.722656 31.3125 57.058594 29.722656 55.832031 28.5 "/>
</g>
</svg>
